<?xml version="1.0" encoding="utf-8"?>
<!-- Generator: Adobe Illustrator 16.0.0, SVG Export Plug-In . SVG Version: 6.00 Build 0)  -->
<!DOCTYPE svg PUBLIC "-//W3C//DTD SVG 1.1//EN" "http://www.w3.org/Graphics/SVG/1.1/DTD/svg11.dtd">
<svg version="1.1"
	 id="svg2" inkscape:version="0.48.5 r10040" sodipodi:docname="logo_vrt.svg" xmlns:dc="http://purl.org/dc/elements/1.1/" xmlns:cc="http://creativecommons.org/ns#" xmlns:svg="http://www.w3.org/2000/svg" xmlns:rdf="http://www.w3.org/1999/02/22-rdf-syntax-ns#" xmlns:sodipodi="http://sodipodi.sourceforge.net/DTD/sodipodi-0.dtd" xmlns:inkscape="http://www.inkscape.org/namespaces/inkscape"
	 xmlns="http://www.w3.org/2000/svg" xmlns:xlink="http://www.w3.org/1999/xlink" x="0px" y="0px" width="400.762px"
	 height="263.189px" viewBox="0 0 400.762 263.189" enable-background="new 0 0 400.762 263.189" xml:space="preserve">
<g fill="#F4F4F4">
	<path d="M388.327,2.326H183.93c0,0,0,0.014,0,0.016h-0.447c-48.185,0-74.75,25.563-74.75,66.438
		c0,38.216,21.596,58.167,52.5,64.812c-19.938,5.981-30.565,28.233-55.156,90.375c-3.655-13.293-4.39-19.597-8.71-31.892
		L32.567,9.635C30.24,2.991,24.591,0,18.277,0c-1.993,0-3.987,0.333-5.981,0.997C5.317,2.658,0,8.307,0,14.954
		c0,1.661,0.332,3.655,0.997,5.317L86.4,247.903c4.319,11.631,12.295,15.286,22.597,15.286l-0.053-0.709
		c2.012,0.46,4.167,0.705,6.101,0.705c5.649,0,10.643-2.645,12.969-8.625l8.281-21.281c21.97-59.5,39.585-88.063,64.086-88.063
		c26.499,0,27.499-34.458,0-34.458l-16.334-0.167c-28.246,0-43.408-10.57-43.408-37.155c0-28.246,15.269-43.531,44.844-43.531
		h67.469c5.651,0,9.342,2.396,10.541,7.542c-0.002,0.26-0.011,0.511-0.011,0.773v210.688c0,7.58,4.113,12.058,10.394,13.63
		c1.635,0.423,3.415,0.647,5.326,0.647c0.017,0,0.03-0.002,0.048-0.002c0.059,0.001,0.113,0.006,0.171,0.006
		c2.238,0,4.312-0.291,6.161-0.871c5.811-1.751,9.559-6.172,9.559-13.414V38.217c0-0.26-0.009-0.509-0.011-0.767
		c1.199-5.146,4.89-7.542,10.541-7.542l75.211-0.15l-0.46-0.15h7.906c7.525,0,12.435-4.685,12.435-12.327
		C400.762,9.304,396.179,2.326,388.327,2.326z"/>
</g>
</svg>
